<svg width="199" height="185" viewBox="0 0 199 185" fill="none" xmlns="http://www.w3.org/2000/svg">
<path d="M56.1336 142.5C26.2836 142.5 5.43359 122.1 5.43359 90.75C5.43359 59.4 26.2836 39 56.1336 39C86.2836 39 107.134 59.4 107.134 90.75C107.134 122.1 86.2836 142.5 56.1336 142.5ZM56.1336 132.15C81.6336 132.15 95.8836 118.05 95.8836 90.75C95.8836 63.45 81.6336 49.35 56.1336 49.35C30.7836 49.35 16.6836 63.45 16.6836 90.75C16.6836 118.05 30.7836 132.15 56.1336 132.15ZM195.791 141H121.391V40.5H132.041V131.25H195.791V141Z" fill="white"/>
</svg>
